<svg id="Layer_1" data-name="Layer 1" xmlns="http://www.w3.org/2000/svg" viewBox="0 0 114.44 114.44"><title>portfolio_logo_new</title><path d="M540.22,423.3a57.22,57.22,0,1,0,57.22,57.22A57.22,57.22,0,0,0,540.22,423.3Zm24.12,76.86h-19V499l5.41-2.88-.69-34.71L534,500.52H530.4l-16.11-38.74-.9,34.35,5.9,2.88v1.15H503.12V499l5.76-3,1.46-39.31-6-2.95v-1.15h15.41l14.78,35.57,14.72-35.57H564v1.15l-5.9,2.45,1.18,39.81,5.07,3ZM580.13,499a4.51,4.51,0,0,1-3.37,1.48,4.39,4.39,0,0,1-3.33-1.48,5.08,5.08,0,0,1,0-7,4.43,4.43,0,0,1,3.33-1.48,4.54,4.54,0,0,1,3.37,1.48,5,5,0,0,1,0,7Z" transform="translate(-483 -423.3)"/></svg>